<svg preserveAspectRatio="none" width="100%" height="100%" overflow="visible" style="display: block;" viewBox="0 0 14.4091 14.3379" fill="none" xmlns="http://www.w3.org/2000/svg">
<g id="Icon">
<path id="Vector" d="M13.9881 8.51842C13.9881 9.95016 13.4193 11.3233 12.4069 12.3357C11.3945 13.3481 10.0214 13.9168 8.58963 13.9168" stroke="var(--stroke-0, #3A3A3A)" stroke-width="0.841779" stroke-linecap="round" stroke-linejoin="round"/>
<path id="Vector_2" d="M11.2896 6.49465V5.81969C11.2896 5.46166 11.1474 5.1183 10.8942 4.86514C10.6411 4.61198 10.2977 4.46976 9.9397 4.46976C9.5817 4.46976 9.2383 4.61198 8.98513 4.86514C8.73197 5.1183 8.58975 5.46166 8.58975 5.81969" stroke="var(--stroke-0, #3A3A3A)" stroke-width="0.841779" stroke-linecap="round" stroke-linejoin="round"/>
<path id="Vector_3" d="M8.5903 5.81974V5.14478C8.5903 4.78675 8.44808 4.44339 8.19492 4.19023C7.94176 3.93707 7.5984 3.79485 7.24037 3.79485C6.88235 3.79485 6.53899 3.93707 6.28583 4.19023C6.03267 4.44339 5.89044 4.78675 5.89044 5.14478V5.81974" stroke="var(--stroke-0, #3A3A3A)" stroke-width="0.841779" stroke-linecap="round" stroke-linejoin="round"/>
<path id="Vector_4" d="M5.8905 5.48192V1.7705C5.8905 1.41256 5.74831 1.06928 5.49521 0.816184C5.24211 0.563085 4.89883 0.42089 4.5409 0.42089C4.18295 0.42089 3.83968 0.563085 3.58658 0.816184C3.33348 1.06928 3.19128 1.41256 3.19128 1.7705V8.51853" stroke="var(--stroke-0, #3A3A3A)" stroke-width="0.841779" stroke-linecap="round" stroke-linejoin="round"/>
<path id="Vector_5" d="M11.289 6.49419C11.289 6.13624 11.4312 5.79297 11.6843 5.53987C11.9374 5.28677 12.2806 5.14458 12.6386 5.14458C12.9965 5.14458 13.3398 5.28677 13.5929 5.53987C13.846 5.79297 13.9882 6.13624 13.9882 6.49419V8.51859C13.9882 9.95036 13.4194 11.3234 12.4071 12.3359C11.3946 13.3482 10.0216 13.917 8.58977 13.917H7.24017C5.35072 13.917 4.20355 13.3366 3.19809 12.338L0.768805 9.90867C0.536631 9.65153 0.412231 9.31501 0.421359 8.96865C0.430497 8.62232 0.572462 8.29277 0.817873 8.04823C1.06328 7.80369 1.39333 7.66289 1.73969 7.65498C2.08605 7.64707 2.42218 7.77266 2.6785 8.00574L3.86615 9.19344" stroke="var(--stroke-0, #3A3A3A)" stroke-width="0.841779" stroke-linecap="round" stroke-linejoin="round"/>
</g>
</svg>
