<svg preserveAspectRatio="none" width="100%" height="100%" overflow="visible" style="display: block;" viewBox="0 0 29.0001 11.6054" fill="none" xmlns="http://www.w3.org/2000/svg">
<path id="Vector 4" d="M0.454764 0.0312715C0.179756 0.0562722 -0.0229153 0.299478 0.00208548 0.574486C0.0270862 0.849494 0.270292 1.05217 0.5453 1.02716L0.500032 0.529218L0.454764 0.0312715ZM28.7307 9.47284C28.9757 9.34545 29.071 9.04356 28.9436 8.79856L26.8676 4.80608C26.7402 4.56109 26.4383 4.46575 26.1933 4.59315C25.9483 4.72055 25.8529 5.02244 25.9803 5.26744L27.8257 8.8163L24.2769 10.6617C24.0319 10.7891 23.9365 11.091 24.0639 11.336C24.1913 11.581 24.4932 11.6763 24.7382 11.5489L28.7307 9.47284ZM1.44458 1.00454C1.72057 1.01378 1.9518 0.797547 1.96105 0.52156C1.97029 0.245572 1.75406 0.014344 1.47807 0.00509703L1.46133 0.504817L1.44458 1.00454ZM3.49541 0.305707C3.2294 0.231596 2.95368 0.387162 2.87957 0.653173C2.80545 0.919185 2.96102 1.19491 3.22703 1.26902L3.36122 0.787364L3.49541 0.305707ZM4.79552 2.00252C5.01708 2.16734 5.3303 2.12134 5.49512 1.89978C5.65994 1.67822 5.61394 1.36499 5.39238 1.20018L5.09395 1.60135L4.79552 2.00252ZM6.72846 2.91196C6.62591 2.65556 6.33492 2.53085 6.07853 2.63341C5.82214 2.73597 5.69743 3.02695 5.79998 3.28334L6.26422 3.09765L6.72846 2.91196ZM6.19467 5.11277C6.26144 5.38072 6.53278 5.54381 6.80073 5.47704C7.06868 5.41027 7.23177 5.13893 7.165 4.87098L6.67984 4.99187L6.19467 5.11277ZM7.81308 6.59405C7.68714 6.3483 7.38582 6.25118 7.14007 6.37712C6.89432 6.50306 6.7972 6.80437 6.92314 7.05013L7.36811 6.82209L7.81308 6.59405ZM8.06897 8.77295C8.24716 8.98391 8.56263 9.01048 8.77359 8.8323C8.98455 8.65411 9.01112 8.33865 8.83293 8.12769L8.45095 8.45032L8.06897 8.77295ZM10.1747 9.37637C9.95073 9.21483 9.63822 9.26544 9.47669 9.4894C9.31515 9.71337 9.36576 10.0259 9.58972 10.1874L9.88221 9.78189L10.1747 9.37637ZM11.4366 11.1697C11.6963 11.2636 11.9829 11.1291 12.0768 10.8694C12.1706 10.6097 12.0361 10.3231 11.7764 10.2292L11.6065 10.6995L11.4366 11.1697ZM13.5392 10.5736C13.2632 10.564 13.0317 10.7799 13.0221 11.0558C13.0124 11.3318 13.2284 11.5633 13.5043 11.573L13.5218 11.0733L13.5392 10.5736ZM15.5483 11.3156C15.8125 11.2354 15.9617 10.9561 15.8814 10.6919C15.8011 10.4277 15.5219 10.2785 15.2577 10.3588L15.403 10.8372L15.5483 11.3156ZM16.8187 9.63344C16.581 9.77391 16.5021 10.0805 16.6426 10.3183C16.7831 10.556 17.0897 10.6349 17.3274 10.4944L17.0731 10.0639L16.8187 9.63344ZM18.8969 9.54909C19.1382 9.41484 19.225 9.11038 19.0908 8.86907C18.9565 8.62776 18.6521 8.54097 18.4108 8.67522L18.6538 9.11215L18.8969 9.54909ZM20.1928 7.89664C19.9291 7.97854 19.7817 8.25871 19.8636 8.52243C19.9454 8.78615 20.2256 8.93355 20.4893 8.85165L20.3411 8.37415L20.1928 7.89664ZM22.189 8.53328C22.4643 8.51202 22.6702 8.27159 22.649 7.99627C22.6277 7.72095 22.3873 7.51499 22.112 7.53625L22.1505 8.03477L22.189 8.53328ZM24.041 7.55656C23.766 7.53229 23.5233 7.7356 23.499 8.01068C23.4747 8.28575 23.6781 8.52842 23.9531 8.55269L23.9971 8.05463L24.041 7.55656ZM25.7188 8.81452C25.9895 8.86912 26.2532 8.69395 26.3078 8.42326C26.3624 8.15257 26.1872 7.88887 25.9165 7.83427L25.8176 8.3244L25.7188 8.81452ZM27.7515 8.28283C27.4859 8.20756 27.2095 8.36192 27.1342 8.62761C27.0589 8.8933 27.2133 9.1697 27.479 9.24496L27.6153 8.7639L27.7515 8.28283ZM0.500032 0.529218L0.5453 1.02716C0.805083 1.00355 1.11116 0.993365 1.44458 1.00454L1.46133 0.504817L1.47807 0.00509703C1.10512 -0.00739858 0.757576 0.00374308 0.454764 0.0312715L0.500032 0.529218ZM3.36122 0.787364L3.22703 1.26902C3.8022 1.42926 4.34529 1.66759 4.79552 2.00252L5.09395 1.60135L5.39238 1.20018C4.81875 0.773449 4.15519 0.489523 3.49541 0.305707L3.36122 0.787364ZM6.26422 3.09765L5.79998 3.28334C5.89593 3.5232 5.96638 3.79116 6.00389 4.09124L6.50003 4.02922L6.99617 3.9672C6.94852 3.58597 6.85751 3.23457 6.72846 2.91196L6.26422 3.09765ZM6.50003 4.02922L6.00389 4.09124C6.04702 4.43628 6.11112 4.77745 6.19467 5.11277L6.67984 4.99187L7.165 4.87098C7.09091 4.57363 7.03424 4.27177 6.99617 3.9672L6.50003 4.02922ZM7.36811 6.82209L6.92314 7.05013C7.24003 7.66849 7.62579 8.24824 8.06897 8.77295L8.45095 8.45032L8.83293 8.12769C8.43924 7.66158 8.09562 7.14538 7.81308 6.59405L7.36811 6.82209ZM9.88221 9.78189L9.58972 10.1874C10.1585 10.5977 10.7784 10.9319 11.4366 11.1697L11.6065 10.6995L11.7764 10.2292C11.2111 10.025 10.6731 9.73588 10.1747 9.37637L9.88221 9.78189ZM13.5218 11.0733L13.5043 11.573C13.8524 11.5851 14.2056 11.5699 14.562 11.5254L14.5 11.0292L14.438 10.5331C14.1346 10.571 13.8346 10.5839 13.5392 10.5736L13.5218 11.0733ZM14.5 11.0292L14.562 11.5254C14.9129 11.4815 15.2396 11.4094 15.5483 11.3156L15.403 10.8372L15.2577 10.3588C15.0009 10.4367 14.73 10.4966 14.438 10.5331L14.5 11.0292ZM17.0731 10.0639L17.3274 10.4944C17.881 10.1673 18.3376 9.86025 18.8969 9.54909L18.6538 9.11215L18.4108 8.67522C17.8529 8.98558 17.2969 9.3509 16.8187 9.63344L17.0731 10.0639ZM20.3411 8.37415L20.4893 8.85165C20.9862 8.69737 21.5436 8.58312 22.189 8.53328L22.1505 8.03477L22.112 7.53625C21.3916 7.59188 20.7606 7.72031 20.1928 7.89664L20.3411 8.37415ZM23.9971 8.05463L23.9531 8.55269C24.4892 8.59999 25.0751 8.6847 25.7188 8.81452L25.8176 8.3244L25.9165 7.83427C25.2403 7.69788 24.6176 7.60744 24.041 7.55656L23.9971 8.05463ZM27.6153 8.7639L27.479 9.24496C27.76 9.32457 28.05 9.41146 28.3495 9.50603L28.5 9.02924L28.6506 8.55244C28.3421 8.45501 28.0425 8.36526 27.7515 8.28283L27.6153 8.7639Z" fill="var(--stroke-0, #666666)"/>
</svg>
