<svg width="24" height="24" viewBox="0 0 24 24" fill="none" xmlns="http://www.w3.org/2000/svg">
<path d="M6.1665 7.00008C6.1665 5.15913 7.65889 3.66675 9.49984 3.66675H14.4998C16.3408 3.66675 17.8332 5.15913 17.8332 7.00008C17.8332 7.99566 17.3967 8.8893 16.7047 9.50008C17.3967 10.1109 17.8332 11.0045 17.8332 12.0001C17.8332 13.841 16.3408 15.3334 14.4998 15.3334C13.8927 15.3334 13.3234 15.1711 12.8332 14.8875V17.0001C12.8332 18.841 11.3408 20.3334 9.49984 20.3334C7.65889 20.3334 6.1665 18.841 6.1665 17.0001C6.1665 16.0045 6.60297 15.1108 7.29499 14.5001C6.60297 13.8893 6.1665 12.9957 6.1665 12.0001C6.1665 11.0045 6.60297 10.1109 7.29499 9.50008C6.60297 8.8893 6.1665 7.99566 6.1665 7.00008ZM11.1665 10.3334H9.49984C8.57936 10.3334 7.83317 11.0796 7.83317 12.0001C7.83317 12.9206 8.57936 13.6667 9.49984 13.6667H11.1665V10.3334ZM12.8332 12.0001C12.8332 12.9206 13.5793 13.6667 14.4998 13.6667C15.4203 13.6667 16.1665 12.9206 16.1665 12.0001C16.1665 11.0796 15.4203 10.3334 14.4998 10.3334C13.5793 10.3334 12.8332 11.0796 12.8332 12.0001ZM14.4998 8.66675C15.4203 8.66675 16.1665 7.92056 16.1665 7.00008C16.1665 6.07961 15.4203 5.33341 14.4998 5.33341H12.8332V8.66675H14.4998ZM9.49984 5.33341C8.57936 5.33341 7.83317 6.07961 7.83317 7.00008C7.83317 7.92056 8.57936 8.66675 9.49984 8.66675H11.1665V5.33341H9.49984ZM11.1665 15.3334H9.49984C8.57936 15.3334 7.83317 16.0796 7.83317 17.0001C7.83317 17.9206 8.57936 18.6667 9.49984 18.6667C10.4203 18.6667 11.1665 17.9206 11.1665 17.0001V15.3334Z" fill="#787878"/>
</svg>
