<svg width="24" height="24" viewBox="0 0 24 24" fill="none" xmlns="http://www.w3.org/2000/svg">
<path d="M5.6999 8.4V19.2H18.2999V8.4H5.6999ZM5.6999 6.6H18.2999V4.8H5.6999V6.6ZM19.1999 21H4.7999C4.56121 21 4.33229 20.9052 4.16351 20.7364C3.99472 20.5676 3.8999 20.3387 3.8999 20.1V3.9C3.8999 3.66131 3.99472 3.43239 4.16351 3.2636C4.33229 3.09482 4.56121 3 4.7999 3H19.1999C19.4386 3 19.6675 3.09482 19.8363 3.2636C20.0051 3.43239 20.0999 3.66131 20.0999 3.9V20.1C20.0999 20.3387 20.0051 20.5676 19.8363 20.7364C19.6675 20.9052 19.4386 21 19.1999 21ZM7.4999 10.2H11.0999V13.8H7.4999V10.2ZM7.4999 15.6H16.4999V17.4H7.4999V15.6ZM12.8999 11.1H16.4999V12.9H12.8999V11.1Z" fill="#F8FAFC"/>
</svg>
