<svg width="24" height="24" viewBox="0 0 24 24" fill="none" xmlns="http://www.w3.org/2000/svg">
<path d="M5.69989 12.9C5.69989 8.32078 8.3126 4.40758 11.9999 2.83618C15.6872 4.40758 18.2999 8.32078 18.2999 12.9C18.2999 13.6407 18.2315 14.3634 18.1019 15.0627L19.8479 16.7115C19.9201 16.7798 19.9676 16.8701 19.9831 16.9683C19.9985 17.0664 19.9811 17.167 19.9334 17.2542L17.6879 21.3717C17.6544 21.4332 17.607 21.486 17.5496 21.5259C17.4921 21.5659 17.4261 21.5919 17.3568 21.6018C17.2875 21.6118 17.2168 21.6055 17.1504 21.5833C17.084 21.5612 17.0236 21.5238 16.9742 21.4743L14.9636 19.4637C14.7949 19.2949 14.566 19.2 14.3273 19.2H9.67249C9.43382 19.2 9.20494 19.2949 9.03619 19.4637L7.0256 21.4743C6.97614 21.5238 6.91581 21.5612 6.8494 21.5833C6.78299 21.6055 6.71233 21.6118 6.64303 21.6018C6.57374 21.5919 6.50773 21.5659 6.45024 21.5259C6.39275 21.486 6.34538 21.4332 6.31189 21.3717L4.06639 17.2542C4.01872 17.167 4.00125 17.0664 4.01671 16.9683C4.03218 16.8701 4.07971 16.7798 4.15189 16.7115L5.89789 15.0627C5.76919 14.3634 5.69989 13.6407 5.69989 12.9ZM7.02829 18.9264L7.7636 18.1911C8.26983 17.6847 8.95647 17.4001 9.67249 17.4H14.3273C15.0433 17.4001 15.73 17.6847 16.2362 18.1911L16.9715 18.9264L17.8553 17.3064L16.8653 16.3704C16.6465 16.1637 16.483 15.9055 16.3898 15.6194C16.2965 15.3332 16.2765 15.0283 16.3316 14.7324C16.4432 14.1348 16.4999 13.5219 16.4999 12.9C16.4999 9.41698 14.7044 6.32998 11.9999 4.83598C9.2954 6.32998 7.4999 9.41698 7.4999 12.9C7.4999 13.5219 7.55659 14.1348 7.66819 14.7333C7.72326 15.0292 7.70327 15.3341 7.61003 15.6203C7.5168 15.9064 7.3533 16.1646 7.13449 16.3713L6.1445 17.3064L7.02829 18.9264V18.9264ZM11.9999 12.9C11.5225 12.9 11.0647 12.7103 10.7271 12.3728C10.3895 12.0352 10.1999 11.5774 10.1999 11.1C10.1999 10.6226 10.3895 10.1648 10.7271 9.82719C11.0647 9.48962 11.5225 9.29998 11.9999 9.29998C12.4773 9.29998 12.9351 9.48962 13.2727 9.82719C13.6103 10.1648 13.7999 10.6226 13.7999 11.1C13.7999 11.5774 13.6103 12.0352 13.2727 12.3728C12.9351 12.7103 12.4773 12.9 11.9999 12.9Z" fill="#787878"/>
</svg>
