<svg width="24" height="24" viewBox="0 0 24 24" fill="none" xmlns="http://www.w3.org/2000/svg">
<path d="M17.4279 16.1553L21.2826 20.0091L20.0091 21.2826L16.1553 17.4279C14.7214 18.5774 12.9378 19.2026 11.1 19.2C6.6288 19.2 3 15.5712 3 11.1C3 6.6288 6.6288 3 11.1 3C15.5712 3 19.2 6.6288 19.2 11.1C19.2026 12.9378 18.5774 14.7214 17.4279 16.1553ZM15.6225 15.4875C16.7647 14.3129 17.4026 12.7384 17.4 11.1C17.4 7.6188 14.5803 4.8 11.1 4.8C7.6188 4.8 4.8 7.6188 4.8 11.1C4.8 14.5803 7.6188 17.4 11.1 17.4C12.7384 17.4026 14.3129 16.7647 15.4875 15.6225L15.6225 15.4875Z" fill="#F8FAFC"/>
</svg>
