<svg width="24" height="24" viewBox="0 0 24 24" fill="none" xmlns="http://www.w3.org/2000/svg">
<path d="M4.7998 21.0001C4.7998 19.0905 5.55837 17.2592 6.90864 15.9089C8.2589 14.5587 10.0902 13.8001 11.9998 13.8001C13.9094 13.8001 15.7407 14.5587 17.091 15.9089C18.4412 17.2592 19.1998 19.0905 19.1998 21.0001H17.3998C17.3998 19.5679 16.8309 18.1944 15.8182 17.1817C14.8055 16.169 13.432 15.6001 11.9998 15.6001C10.5676 15.6001 9.19412 16.169 8.18143 17.1817C7.16873 18.1944 6.5998 19.5679 6.5998 21.0001H4.7998ZM11.9998 12.9001C9.0163 12.9001 6.5998 10.4836 6.5998 7.5001C6.5998 4.5166 9.0163 2.1001 11.9998 2.1001C14.9833 2.1001 17.3998 4.5166 17.3998 7.5001C17.3998 10.4836 14.9833 12.9001 11.9998 12.9001ZM11.9998 11.1001C13.9888 11.1001 15.5998 9.4891 15.5998 7.5001C15.5998 5.5111 13.9888 3.9001 11.9998 3.9001C10.0108 3.9001 8.3998 5.5111 8.3998 7.5001C8.3998 9.4891 10.0108 11.1001 11.9998 11.1001Z" fill="#F8FAFC"/>
</svg>
